<?xml version="1.0" encoding="UTF-8" standalone="no"?>
<!-- Generator: Adobe Illustrator 18.0.0, SVG Export Plug-In . SVG Version: 6.00 Build 0)  -->

<svg
   version="1.1"
   id="Capa_1"
   x="0px"
   y="0px"
   viewBox="0 0 59 59"
   style="enable-background:new 0 0 59 59;"
   xml:space="preserve"
   sodipodi:docname="cart.svg"
   inkscape:version="1.1.1 (3bf5ae0d25, 2021-09-20)"
   xmlns:inkscape="http://www.inkscape.org/namespaces/inkscape"
   xmlns:sodipodi="http://sodipodi.sourceforge.net/DTD/sodipodi-0.dtd"
   xmlns="http://www.w3.org/2000/svg"
   xmlns:svg="http://www.w3.org/2000/svg"><defs
   id="defs79" /><sodipodi:namedview
   id="namedview77"
   pagecolor="#ffffff"
   bordercolor="#666666"
   borderopacity="1.0"
   inkscape:pageshadow="2"
   inkscape:pageopacity="0.0"
   inkscape:pagecheckerboard="0"
   showgrid="false"
   inkscape:zoom="13.59322"
   inkscape:cx="29.683916"
   inkscape:cy="25.122819"
   inkscape:window-width="1920"
   inkscape:window-height="991"
   inkscape:window-x="-9"
   inkscape:window-y="-9"
   inkscape:window-maximized="1"
   inkscape:current-layer="g44" />
<g
   id="g44">
	<g
   id="g6"
   transform="matrix(-1,0,0,1,59,0)">
		<path
   style="fill:#000000"
   d="M 15,39 9.833,13 H 58 V 35.012 C 58,37.215 56.215,39 54.012,39 H 15"
   id="path2" />
		<path
   style="fill:#ffffff;fill-opacity:1"
   d="M 54.013,40 H 14.179 L 8.614,12 H 59 V 35.013 C 59,37.763 56.763,40 54.013,40 Z M 15.821,38 H 54.012 C 55.66,38 57,36.66 57,35.013 V 14 H 11.052 Z"
   id="path4" />
	</g>
	<g
   id="g12"
   transform="matrix(-1,0,0,1,59,0)"
   style="fill:#ffffff">
		<circle
   style="fill:#000000"
   cx="22"
   cy="48"
   r="5"
   id="circle8" />
		<path
   style="fill:#ffffff;fill-opacity:1"
   d="m 22,54 c -3.309,0 -6,-2.691 -6,-6 0,-3.309 2.691,-6 6,-6 3.309,0 6,2.691 6,6 0,3.309 -2.691,6 -6,6 z m 0,-10 c -2.206,0 -4,1.794 -4,4 0,2.206 1.794,4 4,4 2.206,0 4,-1.794 4,-4 0,-2.206 -1.794,-4 -4,-4 z"
   id="path10" />
	</g>
	<g
   id="g18"
   transform="matrix(-1,0,0,1,59,0)"
   style="fill:#ffffff">
		<circle
   style="fill:#000000"
   cx="45"
   cy="48"
   r="5"
   id="circle14" />
		<path
   style="fill:#ffffff;fill-opacity:1"
   d="m 45,54 c -3.309,0 -6,-2.691 -6,-6 0,-3.309 2.691,-6 6,-6 3.309,0 6,2.691 6,6 0,3.309 -2.691,6 -6,6 z m 0,-10 c -2.206,0 -4,1.794 -4,4 0,2.206 1.794,4 4,4 2.206,0 4,-1.794 4,-4 0,-2.206 -1.794,-4 -4,-4 z"
   id="path16" />
	</g>
	<path
   style="fill:#ffffff;fill-opacity:1"
   d="m 4,48 h 5.101 c 0.553,0 1,-0.447 1,-1 0,-0.553 -0.447,-1 -1,-1 H 4 c -0.553,0 -1,0.447 -1,1 0,0.553 0.447,1 1,1 z"
   id="path20" />
	<path
   style="fill:#ffffff;fill-opacity:1"
   d="m 18.899,48 h 13.202 c 0.553,0 1,-0.447 1,-1 0,-0.553 -0.447,-1 -1,-1 H 18.9 c -0.553,0 -1,0.447 -1,1 0,0.553 0.447,1 0.999,1 z"
   id="path22" />
	<path
   style="fill:#ffffff;fill-opacity:1"
   d="m 49.168,14 c 0.48,0 0.904,-0.347 0.985,-0.836 L 50.848,9 H 53 C 53.553,9 54,8.553 54,8 54,7.447 53.553,7 53,7 h -3.848 l -0.972,5.836 c -0.091,0.545 0.277,1.06 0.822,1.15 0.057,0.01 0.111,0.014 0.166,0.014 z"
   id="path24" />
	<g
   id="g38"
   transform="matrix(-1,0,0,1,59,0)"
   style="fill:#1ac7b9;fill-opacity:1">
		<path
   style="fill:#1ac7b9;fill-opacity:1"
   d="m 25.013,19 h -2 v -2 c 0,-0.553 -0.447,-1 -1,-1 -0.553,0 -1,0.447 -1,1 v 2 h -2 c -0.553,0 -1,0.447 -1,1 0,0.553 0.447,1 1,1 h 2 v 2 c 0,0.553 0.447,1 1,1 0.553,0 1,-0.447 1,-1 v -2 h 2 c 0.553,0 1,-0.447 1,-1 0,-0.553 -0.448,-1 -1,-1 z"
   id="path26" />
		<path
   style="fill:#1ac7b9;fill-opacity:1"
   d="m 25.013,31 h -2 v -2 c 0,-0.553 -0.447,-1 -1,-1 -0.553,0 -1,0.447 -1,1 v 2 h -2 c -0.553,0 -1,0.447 -1,1 0,0.553 0.447,1 1,1 h 2 v 2 c 0,0.553 0.447,1 1,1 0.553,0 1,-0.447 1,-1 v -2 h 2 c 0.553,0 1,-0.447 1,-1 0,-0.553 -0.448,-1 -1,-1 z"
   id="path28" />
		<path
   style="fill:#1ac7b9;fill-opacity:1"
   d="m 38.013,19 h -2 v -2 c 0,-0.553 -0.447,-1 -1,-1 -0.553,0 -1,0.447 -1,1 v 2 h -2 c -0.553,0 -1,0.447 -1,1 0,0.553 0.447,1 1,1 h 2 v 2 c 0,0.553 0.447,1 1,1 0.553,0 1,-0.447 1,-1 v -2 h 2 c 0.553,0 1,-0.447 1,-1 0,-0.553 -0.448,-1 -1,-1 z"
   id="path30" />
		<path
   style="fill:#1ac7b9;fill-opacity:1"
   d="m 38.013,31 h -2 v -2 c 0,-0.553 -0.447,-1 -1,-1 -0.553,0 -1,0.447 -1,1 v 2 h -2 c -0.553,0 -1,0.447 -1,1 0,0.553 0.447,1 1,1 h 2 v 2 c 0,0.553 0.447,1 1,1 0.553,0 1,-0.447 1,-1 v -2 h 2 c 0.553,0 1,-0.447 1,-1 0,-0.553 -0.448,-1 -1,-1 z"
   id="path32" />
		<path
   style="fill:#1ac7b9;fill-opacity:1"
   d="m 45.013,21 h 2 v 2 c 0,0.553 0.447,1 1,1 0.553,0 1,-0.447 1,-1 v -2 h 2 c 0.553,0 1,-0.447 1,-1 0,-0.553 -0.447,-1 -1,-1 h -2 v -2 c 0,-0.553 -0.447,-1 -1,-1 -0.553,0 -1,0.447 -1,1 v 2 h -2 c -0.553,0 -1,0.447 -1,1 0,0.553 0.447,1 1,1 z"
   id="path34" />
		<path
   style="fill:#1ac7b9;fill-opacity:1"
   d="m 51.013,31 h -2 v -2 c 0,-0.553 -0.447,-1 -1,-1 -0.553,0 -1,0.447 -1,1 v 2 h -2 c -0.553,0 -1,0.447 -1,1 0,0.553 0.447,1 1,1 h 2 v 2 c 0,0.553 0.447,1 1,1 0.553,0 1,-0.447 1,-1 v -2 h 2 c 0.553,0 1,-0.447 1,-1 0,-0.553 -0.448,-1 -1,-1 z"
   id="path36" />
	</g>
	<path
   style="fill:#ffffff;fill-opacity:1"
   d="M 41.899,48 H 45 c 1.406,0 2.758,-0.603 3.707,-1.652 0.947,-1.047 1.409,-2.453 1.268,-3.858 C 49.72,39.972 47.452,38 44.812,38 c -0.553,0 -1,0.447 -1,1 0,0.553 0.447,1 1,1 1.627,0 3.021,1.182 3.173,2.69 0.087,0.855 -0.184,1.678 -0.761,2.316 C 46.652,45.638 45.842,46 45,46 h -3.101 c -0.553,0 -1,0.447 -1,1 0,0.553 0.448,1 1,1 z"
   id="path40" />
	<circle
   style="fill:#ffffff;fill-opacity:1"
   cx="-56"
   cy="8"
   r="3"
   id="circle42"
   transform="scale(-1,1)" />
</g>
<g
   id="g46">
</g>
<g
   id="g48">
</g>
<g
   id="g50">
</g>
<g
   id="g52">
</g>
<g
   id="g54">
</g>
<g
   id="g56">
</g>
<g
   id="g58">
</g>
<g
   id="g60">
</g>
<g
   id="g62">
</g>
<g
   id="g64">
</g>
<g
   id="g66">
</g>
<g
   id="g68">
</g>
<g
   id="g70">
</g>
<g
   id="g72">
</g>
<g
   id="g74">
</g>
</svg>
