<?xml version="1.0" encoding="UTF-8" standalone="no"?>
<!-- Generator: Adobe Illustrator 18.0.0, SVG Export Plug-In . SVG Version: 6.00 Build 0)  -->

<svg
   version="1.1"
   id="Capa_1"
   x="0px"
   y="0px"
   viewBox="0 0 252 252"
   style="enable-background:new 0 0 252 252;"
   xml:space="preserve"
   sodipodi:docname="close.svg"
   inkscape:version="1.1.1 (3bf5ae0d25, 2021-09-20)"
   xmlns:inkscape="http://www.inkscape.org/namespaces/inkscape"
   xmlns:sodipodi="http://sodipodi.sourceforge.net/DTD/sodipodi-0.dtd"
   xmlns="http://www.w3.org/2000/svg"
   xmlns:svg="http://www.w3.org/2000/svg"><defs
   id="defs41" /><sodipodi:namedview
   id="namedview39"
   pagecolor="#ffffff"
   bordercolor="#666666"
   borderopacity="1.0"
   inkscape:pageshadow="2"
   inkscape:pageopacity="0.0"
   inkscape:pagecheckerboard="0"
   showgrid="false"
   inkscape:zoom="2.2503954"
   inkscape:cx="89.53982"
   inkscape:cy="142.41942"
   inkscape:window-width="1920"
   inkscape:window-height="991"
   inkscape:window-x="-9"
   inkscape:window-y="-9"
   inkscape:window-maximized="1"
   inkscape:current-layer="Capa_1" />
<circle
   style="fill:#000000;stroke:#2bc39f;stroke-width:15;stroke-linecap:round;stroke-linejoin:round;paint-order:fill markers stroke;fill-opacity:1"
   id="path952"
   cx="126.1571"
   cy="127.41397"
   r="109.81796" /><g
   id="g6">
	<path
   d="m 209.02506,42.975213 c -7.55809,-7.558091 -19.81016,-7.558091 -27.36825,0 l -55.6568,55.656801 -55.658965,-55.65895 c -7.558093,-7.558093 -19.810159,-7.558093 -27.36825,0 -7.558093,7.558091 -7.558093,19.810157 0,27.368247 l 55.658953,55.658949 -55.658953,55.65895 c -7.558093,7.55812 -7.558093,19.81016 0,27.36825 3.777971,3.77796 8.732123,5.66805 13.684125,5.66805 4.952002,0 9.904002,-1.89009 13.684125,-5.66805 l 55.658965,-55.65894 55.65895,55.65894 c 3.77797,3.77796 8.73213,5.66805 13.68412,5.66805 4.952,0 9.90401,-1.89009 13.68413,-5.66805 7.55809,-7.55809 7.55809,-19.81012 0,-27.36825 l -55.65895,-55.65895 55.65895,-55.658949 c 7.55594,-7.55594 7.55594,-19.810156 -0.001,-27.366098 z"
   id="path4"
   style="fill:#1ac7b9;stroke-width:2.15024;fill-opacity:1" /><path
   d="m 125.92647,10.219113 c -64.037386,0 -116.1349911,51.927091 -116.1349911,115.754887 0,63.82779 52.0976051,115.75489 116.1349911,115.75489 64.0374,0 116.13499,-51.9271 116.13499,-115.75489 0,-63.827796 -52.09759,-115.754887 -116.13499,-115.754887 z m 0,214.973357 c -54.888528,0 -99.544278,-44.50959 -99.544278,-99.21847 0,-54.708882 44.65575,-99.218474 99.544278,-99.218474 54.88854,0 99.54427,44.509592 99.54427,99.218474 0,54.70888 -44.65573,99.21847 -99.54427,99.21847 z"
   id="path2"
   style="stroke:#000000;stroke-width:19.257;stroke-miterlimit:4;stroke-dasharray:none;stroke-opacity:1" />
	
</g>
<g
   id="g8">
</g>
<g
   id="g10">
</g>
<g
   id="g12">
</g>
<g
   id="g14">
</g>
<g
   id="g16">
</g>
<g
   id="g18">
</g>
<g
   id="g20">
</g>
<g
   id="g22">
</g>
<g
   id="g24">
</g>
<g
   id="g26">
</g>
<g
   id="g28">
</g>
<g
   id="g30">
</g>
<g
   id="g32">
</g>
<g
   id="g34">
</g>
<g
   id="g36">
</g>
</svg>
