<?xml version="1.0" encoding="UTF-8" standalone="no"?>
<!-- Generator: Adobe Illustrator 19.0.0, SVG Export Plug-In . SVG Version: 6.00 Build 0)  -->

<svg
   version="1.1"
   id="Capa_1"
   x="0px"
   y="0px"
   viewBox="0 0 69.961 69.961"
   style="enable-background:new 0 0 69.961 69.961;"
   xml:space="preserve"
   sodipodi:docname="search.svg"
   inkscape:version="1.1.1 (3bf5ae0d25, 2021-09-20)"
   xmlns:inkscape="http://www.inkscape.org/namespaces/inkscape"
   xmlns:sodipodi="http://sodipodi.sourceforge.net/DTD/sodipodi-0.dtd"
   xmlns="http://www.w3.org/2000/svg"
   xmlns:svg="http://www.w3.org/2000/svg"><defs
   id="defs41" /><sodipodi:namedview
   id="namedview39"
   pagecolor="#ffffff"
   bordercolor="#666666"
   borderopacity="1.0"
   inkscape:pageshadow="2"
   inkscape:pageopacity="0.0"
   inkscape:pagecheckerboard="0"
   showgrid="false"
   inkscape:zoom="5.731765"
   inkscape:cx="26.606115"
   inkscape:cy="49.635671"
   inkscape:window-width="1920"
   inkscape:window-height="991"
   inkscape:window-x="-9"
   inkscape:window-y="-9"
   inkscape:window-maximized="1"
   inkscape:current-layer="Capa_1" />
<circle
   style="fill:#1ac7b9;fill-opacity:0;stroke:#1ac7b9;stroke-width:15;stroke-linecap:round;stroke-linejoin:round;stroke-miterlimit:4;stroke-dasharray:none;stroke-opacity:1;paint-order:fill markers stroke"
   id="path1073"
   cx="30.793304"
   cy="29.659275"
   r="20.412498" /><ellipse
   style="fill:#552200;fill-opacity:0;stroke:#1ac7b9;stroke-width:15;stroke-linecap:round;stroke-linejoin:round;stroke-miterlimit:4;stroke-dasharray:none;stroke-opacity:1;paint-order:fill markers stroke"
   id="path1687"
   cx="5.2378802"
   cy="75.565834"
   rx="0.21808292"
   ry="8.5052338"
   transform="rotate(-41.174832)" /><g
   id="g6"
   style="fill:#000000">
	<path
   d="M66.829,51.329L56.593,41.093c1.479-3.56,2.248-7.387,2.248-11.282c0-16.222-13.198-29.42-29.421-29.42   C13.198,0.391,0,13.589,0,29.811c0,16.223,13.198,29.421,29.42,29.421c4.318,0,8.518-0.932,12.37-2.724l9.931,9.932   c2.019,2.019,4.701,3.13,7.556,3.13s5.539-1.112,7.557-3.132c2.016-2.015,3.127-4.698,3.127-7.553   C69.96,56.032,68.849,53.348,66.829,51.329z M62.588,62.198c-0.914,0.915-2.113,1.372-3.312,1.372s-2.397-0.457-3.313-1.372   L42.798,49.031c-3.794,2.646-8.403,4.201-13.378,4.201C16.485,53.232,6,42.746,6,29.811s10.485-23.42,23.42-23.42   s23.421,10.485,23.421,23.42c0,4.57-1.314,8.832-3.578,12.438l13.325,13.325C64.418,57.403,64.418,60.369,62.588,62.198z"
   id="path2"
   style="fill:#000000;fill-opacity:1" />
	<path
   d="M29.42,13.061c-9.235,0-16.749,7.514-16.749,16.75s7.514,16.75,16.749,16.75c9.236,0,16.75-7.514,16.75-16.75   S38.656,13.061,29.42,13.061z M29.42,40.561c-5.927,0-10.749-4.822-10.749-10.75s4.822-10.75,10.749-10.75   c5.928,0,10.75,4.822,10.75,10.75S35.348,40.561,29.42,40.561z"
   id="path4"
   style="fill:#000000;fill-opacity:1" />
</g>
<g
   id="g8">
</g>
<g
   id="g10">
</g>
<g
   id="g12">
</g>
<g
   id="g14">
</g>
<g
   id="g16">
</g>
<g
   id="g18">
</g>
<g
   id="g20">
</g>
<g
   id="g22">
</g>
<g
   id="g24">
</g>
<g
   id="g26">
</g>
<g
   id="g28">
</g>
<g
   id="g30">
</g>
<g
   id="g32">
</g>
<g
   id="g34">
</g>
<g
   id="g36">
</g>
</svg>
